<mxfile host="Electron" modified="2023-05-31T20:04:58.095Z" agent="Mozilla/5.0 (Windows NT 10.0; Win64; x64) AppleWebKit/537.36 (KHTML, like Gecko) draw.io/21.2.8 Chrome/112.0.5615.165 Electron/24.2.0 Safari/537.36" etag="xmu8uq5fs1Rur0I-gVnE" version="21.2.8" type="device">
  <diagram name="Página-1" id="8A34iGCpDNREY9lOanAp">
    <mxGraphModel dx="880" dy="532" grid="1" gridSize="10" guides="1" tooltips="1" connect="1" arrows="1" fold="1" page="1" pageScale="1" pageWidth="827" pageHeight="1169" math="0" shadow="0">
      <root>
        <mxCell id="0" />
        <mxCell id="1" parent="0" />
        <mxCell id="U4lMQG2rrmHUFFw2UQiq-11" style="edgeStyle=orthogonalEdgeStyle;rounded=0;orthogonalLoop=1;jettySize=auto;html=1;endArrow=open;endFill=0;" edge="1" parent="1" source="-hqrLETgz1vvv5t_kjo1-20">
          <mxGeometry relative="1" as="geometry">
            <mxPoint x="840" y="370" as="targetPoint" />
          </mxGeometry>
        </mxCell>
        <mxCell id="-hqrLETgz1vvv5t_kjo1-20" value="Cliente" style="swimlane;fontStyle=1;align=center;verticalAlign=top;childLayout=stackLayout;horizontal=1;startSize=26;horizontalStack=0;resizeParent=1;resizeParentMax=0;resizeLast=0;collapsible=1;marginBottom=0;whiteSpace=wrap;html=1;fillColor=#f8cecc;strokeColor=#b85450;" parent="1" vertex="1">
          <mxGeometry x="715" y="490" width="250" height="52" as="geometry" />
        </mxCell>
        <mxCell id="-hqrLETgz1vvv5t_kjo1-26" value="&lt;div&gt;1 - Criar a interface com a estratégia&lt;/div&gt;&lt;div&gt;2 - Implementar as classes concretas que irão utilizar a estratégia&lt;/div&gt;&lt;div&gt;3 - Criar a classe context que irá executar a estratégia utilizando o polimorfismo&lt;/div&gt;&lt;div&gt;&lt;br&gt;&lt;/div&gt;" style="text;html=1;align=left;verticalAlign=middle;resizable=0;points=[];autosize=1;strokeColor=#666666;fillColor=#f5f5f5;fontColor=#333333;" parent="1" vertex="1">
          <mxGeometry x="40" y="915" width="450" height="70" as="geometry" />
        </mxCell>
        <mxCell id="U4lMQG2rrmHUFFw2UQiq-6" style="edgeStyle=orthogonalEdgeStyle;rounded=0;orthogonalLoop=1;jettySize=auto;html=1;endArrow=diamond;endFill=0;" edge="1" parent="1" source="dH_4KRTwfCwti32s8tUT-1">
          <mxGeometry relative="1" as="geometry">
            <mxPoint x="670" y="266" as="targetPoint" />
          </mxGeometry>
        </mxCell>
        <mxCell id="dH_4KRTwfCwti32s8tUT-1" value="&amp;lt;&amp;lt;CalculaFreteStrategy&amp;gt;&amp;gt;" style="swimlane;fontStyle=1;align=center;verticalAlign=top;childLayout=stackLayout;horizontal=1;startSize=26;horizontalStack=0;resizeParent=1;resizeParentMax=0;resizeLast=0;collapsible=1;marginBottom=0;whiteSpace=wrap;html=1;fillColor=#e1d5e7;strokeColor=#9673a6;" parent="1" vertex="1">
          <mxGeometry x="205" y="240" width="280" height="52" as="geometry" />
        </mxCell>
        <mxCell id="dH_4KRTwfCwti32s8tUT-4" value="+ calcular(distanciaKm: double): double" style="text;strokeColor=none;fillColor=none;align=left;verticalAlign=top;spacingLeft=4;spacingRight=4;overflow=hidden;rotatable=0;points=[[0,0.5],[1,0.5]];portConstraint=eastwest;whiteSpace=wrap;html=1;" parent="dH_4KRTwfCwti32s8tUT-1" vertex="1">
          <mxGeometry y="26" width="280" height="26" as="geometry" />
        </mxCell>
        <mxCell id="U4lMQG2rrmHUFFw2UQiq-1" style="edgeStyle=orthogonalEdgeStyle;rounded=0;orthogonalLoop=1;jettySize=auto;html=1;endArrow=block;endFill=0;" edge="1" parent="1" source="dH_4KRTwfCwti32s8tUT-5">
          <mxGeometry relative="1" as="geometry">
            <mxPoint x="351" y="300" as="targetPoint" />
          </mxGeometry>
        </mxCell>
        <mxCell id="dH_4KRTwfCwti32s8tUT-5" value="FreteMoto" style="swimlane;fontStyle=1;align=center;verticalAlign=top;childLayout=stackLayout;horizontal=1;startSize=26;horizontalStack=0;resizeParent=1;resizeParentMax=0;resizeLast=0;collapsible=1;marginBottom=0;whiteSpace=wrap;html=1;fillColor=#d5e8d4;strokeColor=#82b366;" parent="1" vertex="1">
          <mxGeometry x="81" y="360" width="249" height="52" as="geometry" />
        </mxCell>
        <mxCell id="dH_4KRTwfCwti32s8tUT-6" value="+ calcular(distanciaKm: double): double" style="text;strokeColor=none;fillColor=none;align=left;verticalAlign=top;spacingLeft=4;spacingRight=4;overflow=hidden;rotatable=0;points=[[0,0.5],[1,0.5]];portConstraint=eastwest;whiteSpace=wrap;html=1;" parent="dH_4KRTwfCwti32s8tUT-5" vertex="1">
          <mxGeometry y="26" width="249" height="26" as="geometry" />
        </mxCell>
        <mxCell id="U4lMQG2rrmHUFFw2UQiq-2" style="edgeStyle=orthogonalEdgeStyle;rounded=0;orthogonalLoop=1;jettySize=auto;html=1;endArrow=block;endFill=0;" edge="1" parent="1" source="dH_4KRTwfCwti32s8tUT-7">
          <mxGeometry relative="1" as="geometry">
            <mxPoint x="351" y="300" as="targetPoint" />
          </mxGeometry>
        </mxCell>
        <mxCell id="dH_4KRTwfCwti32s8tUT-7" value="FreteCarro" style="swimlane;fontStyle=1;align=center;verticalAlign=top;childLayout=stackLayout;horizontal=1;startSize=26;horizontalStack=0;resizeParent=1;resizeParentMax=0;resizeLast=0;collapsible=1;marginBottom=0;whiteSpace=wrap;html=1;fillColor=#d5e8d4;strokeColor=#82b366;" parent="1" vertex="1">
          <mxGeometry x="371" y="360" width="249" height="52" as="geometry" />
        </mxCell>
        <mxCell id="dH_4KRTwfCwti32s8tUT-8" value="+ calcular(distanciaKm: double): double" style="text;strokeColor=none;fillColor=none;align=left;verticalAlign=top;spacingLeft=4;spacingRight=4;overflow=hidden;rotatable=0;points=[[0,0.5],[1,0.5]];portConstraint=eastwest;whiteSpace=wrap;html=1;" parent="dH_4KRTwfCwti32s8tUT-7" vertex="1">
          <mxGeometry y="26" width="249" height="26" as="geometry" />
        </mxCell>
        <mxCell id="U4lMQG2rrmHUFFw2UQiq-3" value="&lt;font style=&quot;font-size: 36px;&quot;&gt;Strategy&lt;/font&gt;" style="text;html=1;align=left;verticalAlign=middle;resizable=0;points=[];autosize=1;fillColor=#d5e8d4;strokeColor=#82b366;gradientColor=#97d077;" vertex="1" parent="1">
          <mxGeometry x="40" y="40" width="160" height="60" as="geometry" />
        </mxCell>
        <mxCell id="U4lMQG2rrmHUFFw2UQiq-7" value="CalculaContext" style="swimlane;fontStyle=1;align=center;verticalAlign=top;childLayout=stackLayout;horizontal=1;startSize=26;horizontalStack=0;resizeParent=1;resizeParentMax=0;resizeLast=0;collapsible=1;marginBottom=0;whiteSpace=wrap;html=1;fillColor=#d5e8d4;strokeColor=#82b366;" vertex="1" parent="1">
          <mxGeometry x="680" y="240" width="320" height="120" as="geometry" />
        </mxCell>
        <mxCell id="U4lMQG2rrmHUFFw2UQiq-8" value="+ calculaFreteStrategy:&amp;nbsp;CalculaFreteStrategy" style="text;strokeColor=none;fillColor=none;align=left;verticalAlign=top;spacingLeft=4;spacingRight=4;overflow=hidden;rotatable=0;points=[[0,0.5],[1,0.5]];portConstraint=eastwest;whiteSpace=wrap;html=1;" vertex="1" parent="U4lMQG2rrmHUFFw2UQiq-7">
          <mxGeometry y="26" width="320" height="26" as="geometry" />
        </mxCell>
        <mxCell id="U4lMQG2rrmHUFFw2UQiq-9" value="" style="line;strokeWidth=1;fillColor=none;align=left;verticalAlign=middle;spacingTop=-1;spacingLeft=3;spacingRight=3;rotatable=0;labelPosition=right;points=[];portConstraint=eastwest;strokeColor=inherit;" vertex="1" parent="U4lMQG2rrmHUFFw2UQiq-7">
          <mxGeometry y="52" width="320" height="8" as="geometry" />
        </mxCell>
        <mxCell id="U4lMQG2rrmHUFFw2UQiq-10" value="+&amp;nbsp;CalculaContext()&lt;br&gt;&lt;br&gt;+ fazerCalculo(distanciaKm: double): double" style="text;strokeColor=none;fillColor=none;align=left;verticalAlign=top;spacingLeft=4;spacingRight=4;overflow=hidden;rotatable=0;points=[[0,0.5],[1,0.5]];portConstraint=eastwest;whiteSpace=wrap;html=1;" vertex="1" parent="U4lMQG2rrmHUFFw2UQiq-7">
          <mxGeometry y="60" width="320" height="60" as="geometry" />
        </mxCell>
        <mxCell id="U4lMQG2rrmHUFFw2UQiq-12" value="usa" style="text;html=1;align=center;verticalAlign=middle;resizable=0;points=[];autosize=1;strokeColor=none;fillColor=none;" vertex="1" parent="1">
          <mxGeometry x="840" y="458" width="40" height="30" as="geometry" />
        </mxCell>
        <mxCell id="U4lMQG2rrmHUFFw2UQiq-13" value="implementa" style="text;html=1;align=left;verticalAlign=middle;resizable=0;points=[];autosize=1;strokeColor=none;fillColor=none;" vertex="1" parent="1">
          <mxGeometry x="370" y="320" width="90" height="30" as="geometry" />
        </mxCell>
        <mxCell id="U4lMQG2rrmHUFFw2UQiq-14" value="implementa" style="text;html=1;align=right;verticalAlign=middle;resizable=0;points=[];autosize=1;strokeColor=none;fillColor=none;" vertex="1" parent="1">
          <mxGeometry x="240" y="320" width="90" height="30" as="geometry" />
        </mxCell>
      </root>
    </mxGraphModel>
  </diagram>
</mxfile>
